<svg xmlns="http://www.w3.org/2000/svg" viewBox="0 0 512 512" role="img" aria-labelledby="title description">
  <title id="title">和酒ログ</title>
  <desc id="description">静かな藍色の背景に、窓の灯りが映る徳利と盃</desc>
  <rect width="512" height="512" fill="#0c2238"/>

  <!-- Tokkuri: a quiet sake silhouette with generous negative space. -->
  <path
    d="M206 84h68v31c0 21 10 39 27 52 38 29 59 74 59 123v51c0 50-40 91-90 91h-60c-50 0-90-41-90-91v-51c0-49 21-94 59-123 17-13 27-31 27-52V84Z"
    fill="#f6f0e3"
  />
  <path d="M198 84c0-12 10-22 22-22h40c12 0 22 10 22 22v19h-84V84Z" fill="#f6f0e3"/>

  <!-- The four panes are the discreet LOG HOUSE signature. -->
  <g fill="#d59b4a">
    <rect x="224" y="174" width="34" height="34" rx="5"/>
    <rect x="266" y="174" width="34" height="34" rx="5"/>
    <rect x="224" y="216" width="34" height="34" rx="5"/>
    <rect x="266" y="216" width="34" height="34" rx="5"/>
  </g>
  <circle cx="310" cy="262" r="5" fill="#d59b4a"/>

  <!-- Ochoko: a low, flared sake cup with a small foot. -->
  <path
    d="M292 326h132l-13 58c-6 27-30 46-58 46h-2c-28 0-52-19-58-46l-13-58h12Z"
    fill="#f6f0e3"
    stroke="#0c2238"
    stroke-width="12"
    stroke-linejoin="round"
  />
  <path d="M292 326c0-12 10-21 22-21h76c12 0 22 9 22 21s-10 21-22 21h-76c-12 0-22-9-22-21Z" fill="#f6f0e3" stroke="#0c2238" stroke-width="12"/>
  <rect x="316" y="318" width="72" height="16" rx="8" fill="#d59b4a"/>
  <path d="M337 420h30v23h-30Z" fill="#f6f0e3"/>
</svg>
